<?xml version="1.0" encoding="utf-8"?>
<!-- Generator: Adobe Illustrator 16.0.4, SVG Export Plug-In . SVG Version: 6.00 Build 0)  -->
<!DOCTYPE svg PUBLIC "-//W3C//DTD SVG 1.1//EN" "http://www.w3.org/Graphics/SVG/1.1/DTD/svg11.dtd">
<svg version="1.1" id="Layer_1" xmlns="http://www.w3.org/2000/svg" xmlns:xlink="http://www.w3.org/1999/xlink" x="0px" y="0px"
	 width="708.66px" height="328.594px" viewBox="0 0 708.66 328.594" enable-background="new 0 0 708.66 328.594"
	 xml:space="preserve">
<title>Google_AdWords</title>
<g>
	<path fill="#FFFFFF" d="M161.794,302.688l25.591-67.646h9.781l25.591,67.646h-9.618l-6.52-18.42h-28.525l-6.684,18.42H161.794z
		 M181.029,276.281h22.494l-11.084-30.482h-0.326L181.029,276.281z"/>
	<path fill="#FFFFFF" d="M248.512,304.156c-5.936,0.028-11.59-2.529-15.485-7.012c-4.384-4.795-6.722-11.111-6.52-17.604
		c-0.202-6.492,2.136-12.812,6.52-17.604c3.895-4.481,9.549-7.041,15.485-7.01c3.293-0.041,6.543,0.742,9.454,2.281
		c2.593,1.295,4.789,3.266,6.357,5.705h0.327l-0.327-6.355v-21.518h8.639v67.645h-8.312v-6.354h-0.327
		c-1.568,2.438-3.764,4.408-6.357,5.705C255.041,303.518,251.791,304.246,248.512,304.156z M249.979,296.168
		c3.971,0.043,7.77-1.619,10.432-4.564c2.933-3.312,4.454-7.641,4.239-12.062c0.259-4.476-1.266-8.869-4.239-12.226
		c-5.305-5.762-14.276-6.133-20.039-0.825c-0.286,0.264-0.562,0.539-0.826,0.825c-3.032,3.328-4.615,7.728-4.4,12.226
		c-0.215,4.498,1.368,8.896,4.4,12.226c2.663,2.946,6.462,4.608,10.433,4.563V296.168z"/>
	<path fill="#FFFFFF" d="M363.918,235.041l-18.093,67.646h-8.965l-14.507-44.664h-0.326l-14.507,44.664h-8.965l-18.745-67.646h9.127
		l14.345,53.303h0.326l14.671-44.174h8.149l14.671,44.174h0.326l13.529-53.303h9.128H363.918z"/>
	<path fill="#FFFFFF" d="M374.84,261.938c9.471-9.408,24.76-9.408,34.23,0c4.473,4.75,6.876,11.082,6.684,17.604
		c0.193,6.521-2.21,12.854-6.684,17.604c-9.471,9.406-24.76,9.406-34.23,0c-4.473-4.752-6.877-11.084-6.684-17.604
		C367.961,273.02,370.366,266.688,374.84,261.938z M381.359,291.766c5.604,5.853,14.891,6.053,20.742,0.447
		c0.151-0.145,0.303-0.295,0.447-0.447c3.124-3.283,4.771-7.699,4.564-12.225c0.208-4.527-1.44-8.941-4.564-12.227
		c-5.604-5.853-14.891-6.051-20.742-0.447c-0.151,0.146-0.303,0.295-0.447,0.447c-3.123,3.285-4.771,7.699-4.563,12.227
		C376.588,284.068,378.234,288.484,381.359,291.766z"/>
	<path fill="#FFFFFF" d="M432.379,302.688h-8.638v-46.293h8.312v7.498h0.327c1.001-2.639,2.907-4.832,5.379-6.192
		c2.388-1.531,5.15-2.377,7.986-2.445c2.229-0.062,4.445,0.328,6.521,1.142l-3.261,8.149c-1.47-0.481-3.016-0.703-4.562-0.651
		c-3.171,0.039-6.185,1.397-8.313,3.75c-2.469,2.641-3.763,6.168-3.586,9.778v25.267h-0.164V302.688z"/>
	<path fill="#FFFFFF" d="M477.368,304.156c-5.938,0.028-11.591-2.529-15.485-7.012c-4.383-4.795-6.722-11.111-6.519-17.604
		c-0.203-6.492,2.136-12.812,6.519-17.604c3.896-4.481,9.55-7.041,15.485-7.01c3.292-0.041,6.543,0.742,9.455,2.281
		c2.593,1.295,4.788,3.266,6.355,5.705h0.326l-0.326-6.355v-21.518h8.64v67.645h-8.312v-6.354h-0.326
		c-1.568,2.438-3.764,4.408-6.356,5.705C483.896,303.518,480.646,304.246,477.368,304.156z M478.836,296.168
		c3.97,0.043,7.77-1.619,10.432-4.564c2.975-3.354,4.497-7.75,4.238-12.225c0.259-4.477-1.265-8.871-4.238-12.225
		c-5.306-5.764-14.275-6.133-20.037-0.826c-0.287,0.264-0.562,0.539-0.826,0.826c-3.032,3.328-4.616,7.727-4.401,12.225
		c-0.215,4.498,1.369,8.896,4.401,12.225c2.633,3.006,6.436,4.729,10.432,4.728V296.168L478.836,296.168z"/>
	<path fill="#FFFFFF" d="M529.692,304.156c-4.589,0.199-9.114-1.117-12.878-3.75c-3.319-2.404-5.913-5.676-7.497-9.455l7.823-3.26
		c2.499,5.758,6.685,8.639,12.552,8.639c2.358,0.109,4.693-0.518,6.683-1.793c1.631-1.018,2.618-2.807,2.608-4.729
		c0-3.041-2.119-5.107-6.357-6.191l-9.29-2.283c-3.097-0.791-5.986-2.236-8.477-4.238c-2.567-2.051-4.017-5.193-3.912-8.477
		c-0.026-4.016,2.002-7.768,5.378-9.941c3.794-2.57,8.299-3.881,12.878-3.75c3.822-0.062,7.592,0.896,10.921,2.771
		c3.136,1.793,5.555,4.613,6.847,7.986l-7.498,3.098c-1.737-4.129-5.271-6.193-10.595-6.193c-2.282-0.068-4.539,0.494-6.521,1.629
		c-1.629,0.859-2.638,2.562-2.608,4.402c0,2.607,2.065,4.402,6.194,5.379l9.127,2.119c3.687,0.65,7.062,2.48,9.619,5.215
		c2.009,2.301,3.109,5.258,3.097,8.312c0.063,4.084-1.812,7.953-5.054,10.434C538.99,302.91,534.38,304.352,529.692,304.156z"/>
</g>
<g>
	<path fill="#FFFFFF" d="M310.864,127.008c0,27.135-21.996,49.126-49.127,49.126c-27.132,0-49.128-21.992-49.128-49.126
		c0-27.132,21.996-49.126,49.128-49.126C288.869,77.881,310.864,99.876,310.864,127.008z M289.491,127.008
		c0-17.513-12.764-29.683-27.606-29.683c-14.842,0-27.606,12.17-27.606,29.683c0,17.516,12.765,29.686,27.606,29.686
		C276.727,156.692,289.491,144.522,289.491,127.008z"/>
	<path fill="#FFFFFF" d="M416.838,127.008c0,27.135-21.997,49.126-49.128,49.126c-27.133,0-49.128-21.992-49.128-49.126
		c0-27.132,21.995-49.126,49.128-49.126C394.841,77.881,416.838,99.876,416.838,127.008z M395.466,127.008
		c0-17.513-12.766-29.683-27.606-29.683c-14.842,0-27.606,12.17-27.606,29.683c0,17.516,12.764,29.686,27.606,29.686
		C382.7,156.692,395.466,144.522,395.466,127.008z"/>
	<path fill="#FFFFFF" d="M518.357,80.999v87.867c0,36.215-21.374,51.057-46.604,51.057c-18.958,0.111-36.094-11.274-43.339-28.795
		l18.699-7.717c3.874,10.313,13.625,17.246,24.64,17.512c16.029,0,26.122-10.092,26.122-28.793v-7.123h-0.892
		c-6.564,7.293-16.018,11.312-25.825,10.979c-24.34,0-46.9-21.37-46.9-48.68c0-27.309,22.562-49.276,46.9-49.276
		c9.793-0.249,19.213,3.757,25.825,10.983h0.892v-8.015L518.357,80.999L518.357,80.999z M499.36,127.305
		c0-17.216-11.576-29.979-26.123-29.979c-14.545,0-27.312,12.467-27.312,29.979c0,17.516,12.468,29.387,27.312,29.387
		C488.079,156.692,499.36,144.225,499.36,127.305z"/>
	<path fill="#FFFFFF" d="M551.899,29.645V173.02h-20.776V29.645H551.899z"/>
	<path fill="#FFFFFF" d="M633.829,143.334l16.624,10.984c-9.063,13.589-24.336,21.724-40.668,21.667
		c-26.391,0.5-48.188-20.487-48.689-46.875c-0.013-0.702-0.011-1.401,0.008-2.104c0-29.09,21.076-48.979,46.309-48.979
		c25.229,0,37.698,20.185,41.854,31.169l2.375,5.64l-65.306,27.014c4.129,9.344,13.539,15.226,23.749,14.84
		c9.865,0.02,19.006-5.17,24.044-13.653l0,0L633.829,143.334z M582.475,125.821l43.639-18.403
		c-2.375-6.234-9.499-10.39-18.107-10.39c-14.743,0.623-26.187,13.077-25.563,27.819c0.009,0.228,0.021,0.452,0.034,0.68
		L582.475,125.821L582.475,125.821z"/>
	<path fill="#FFFFFF" d="M133.352,114.246v-20.78h70.055c0.675,4.12,0.972,8.292,0.891,12.468c0,15.437-4.156,34.73-18.107,48.683
		c-13.951,13.951-30.278,21.372-52.838,21.372c-41.855,0-77.179-34.134-77.179-75.991c0-41.854,35.324-75.992,77.179-75.992
		c19.442-0.233,38.162,7.362,51.948,21.075l-14.547,14.545c-10.021-9.687-23.465-15.022-37.402-14.842
		C103.186,44.782,78.731,69.235,78.729,99.4c0,0.199,0.001,0.397,0.003,0.597c-0.328,30.165,23.859,54.881,54.022,55.21
		c0.199,0,0.398,0.002,0.597,0.002c19.889,0,31.168-8.017,38.292-15.138c7.125-7.125,9.796-14.25,11.28-25.826L133.352,114.246
		L133.352,114.246z"/>
</g>
</svg>
